#!OML:ASF X:\für Bonn\!DataBase\2005_08_10_Bjorn_Final\c3d\bjorn.ASF
:FULLY-SPECIFIED
:DEGREES
235
root 10.4051 10.331 0.0882599 -338.96 89.1873 -336.33
lowerback 43.2128 -1.81922 7.25321
upperback 21.8048 4.38639 2.24843
thorax 4.43979 4.23342 -2.48937
lowerneck -6.9085 -8.05918 4.00418
upperneck 5.94249 -11.0797 -0.822105
head 2.81996 -5.43445 -1.42359
rclavicle 7.63333e-014 4.05521e-014
rhumerus 21.33 -10.8789 -71.9717
rradius 21.4955
rwrist 5.92228
rhand -38.0996 27.0113
rfingers 7.12502
rthumb -11.1353 -2.67324
lclavicle 7.63333e-014 4.05521e-014
lhumerus -3.99517 -37.5044 75.7221
lradius 43.5625
lwrist -6.07835
lhand -27.5286 -10.8063
lfingers 7.12502
lthumb -0.930624 19.1714
rfemur -63.1265 -32.8009 -11.7812
rtibia 137.529
rfoot -19.7278 54.0904
rtoes -23.5027
lfemur -84.8529 27.1169 -24.0966
ltibia 136.78
lfoot -26.5483 -10.6227
ltoes -31.078
236
root 10.4114 10.4654 0.0869596 -341.91 89.237 -339.658
lowerback 42.9593 -1.74233 7.22802
upperback 21.7127 4.40596 2.19096
thorax 4.40261 4.22607 -2.54657
lowerneck -6.90152 -7.99276 4.04359
upperneck 5.92813 -10.9944 -0.830931
head 2.81347 -5.392 -1.42883
rclavicle 2.06736e-014 1.27222e-014
rhumerus 21.0877 -10.7346 -71.9574
rradius 21.5014
rwrist 5.86337
rhand -37.795 26.6194
rfingers 7.12502
rthumb -10.8415 -3.08078
lclavicle 2.06736e-014 1.27222e-014
lhumerus -4.18749 -37.5967 75.6856
lradius 43.5604
lwrist -6.25677
lhand -27.5877 -10.7714
lfingers 7.12502
lthumb -0.987722 19.2061
rfemur -63.2563 -30.4936 -10.2842
rtibia 136.544
rfoot -20.2731 52.4778
rtoes -24.2552
lfemur -84.2599 25.8548 -23.887
ltibia 135.783
lfoot -26.4135 -10.0594
ltoes -31.2233
237
root 10.4184 10.6033 0.0847746 -347.078 89.2785 -345.201
lowerback 42.6923 -1.65866 7.18933
upperback 21.6205 4.42762 2.16984
thorax 4.36613 4.21435 -2.55862
lowerneck -6.86939 -7.93085 3.99236
upperneck 5.91967 -10.9062 -0.815571
head 2.81082 -5.34896 -1.41064
rclavicle -4.77083e-015 -2.94201e-014
rhumerus 20.8117 -10.3881 -71.8154
rradius 21.5388
rwrist 5.60495
rhand -37.53 26.1648
rfingers 7.12502
rthumb -10.5859 -3.5486
lclavicle -4.77083e-015 -2.94201e-014
lhumerus -4.42051 -37.675 75.7251
lradius 43.5131
lwrist -6.33693
lhand -27.6711 -10.8635
lfingers 7.12502
lthumb -1.06822 19.1136
rfemur -63.338 -28.1922 -8.85782
rtibia 135.536
rfoot -20.5607 50.911
rtoes -24.714
lfemur -83.665 24.6891 -23.6726
ltibia 134.774
lfoot -26.2752 -9.55802
ltoes -31.198
238
root 10.4262 10.7408 0.0835357 -349.204 89.3298 -347.694
lowerback 42.4186 -1.58121 7.13995
upperback 21.5251 4.43782 2.12673
thorax 4.32852 4.19836 -2.5851
lowerneck -6.86178 -7.86285 3.96395
upperneck 5.90702 -10.8131 -0.808675
head 2.80966 -5.30342 -1.39984
rclavicle -4.92986e-014 -4.77083e-014
rhumerus 20.5072 -10.135 -71.7556
rradius 21.5774
rwrist 5.42864
rhand -37.1928 25.7729
rfingers 7.12502
rthumb -10.2607 -3.95688
lclavicle -4.92986e-014 -4.77083e-014
lhumerus -4.6459 -37.7493 75.7544
lradius 43.4246
lwrist -6.3984
lhand -27.6893 -10.9942
lfingers 7.12502
lthumb -1.08585 18.9827
rfemur -63.3071 -26.1394 -7.6358
rtibia 134.516
rfoot -20.5949 49.4861
rtoes -24.6424
lfemur -83.0618 23.5429 -23.5014
ltibia 133.745
lfoot -26.155 -9.03686
ltoes -31.332
239
root 10.4346 10.8805 0.0816342 -357.383 89.3615 -356.216
lowerback 42.167 -1.50934 7.14345
upperback 21.4133 4.46021 2.07417
thorax 4.27307 4.1926 -2.65283
lowerneck -6.89566 -7.80171 4.00786
upperneck 5.99657 -10.7356 -0.835236
head 2.84474 -5.2626 -1.41802
rclavicle -4.77083e-014 -3.10104e-014
rhumerus 20.1593 -9.85469 -71.7122
rradius 21.6002
rwrist 5.25158
rhand -36.9048 25.3612
rfingers 7.12502
rthumb -9.98277 -4.3821
lclavicle -4.77083e-014 -3.10104e-014
lhumerus -4.91194 -37.9239 75.746
lradius 43.3636
lwrist -6.39416
lhand -27.7765 -11.1075
lfingers 7.12502
lthumb -1.17006 18.8691
rfemur -63.2026 -24.0464 -6.41274
rtibia 133.465
rfoot -20.6234 48.0576
rtoes -24.5682
lfemur -82.4352 22.5505 -23.2689
ltibia 132.705
lfoot -26.0607 -8.59986
ltoes -31.4425
240
root 10.4434 11.0203 0.079976 -364.642 89.4028 -363.796
lowerback 41.7795 -1.43089 7.12495
upperback 21.4277 4.46612 2.05945
thorax 4.21925 4.18017 -2.69663
lowerneck -6.89237 -7.73499 3.99567
upperneck 6.06033 -10.6441 -0.848886
head 2.86832 -5.21614 -1.41949
rclavicle 3.33958e-014 -4.29375e-014
rhumerus 19.7881 -9.59846 -71.6788
rradius 21.6393
rwrist 5.11744
rhand -36.6261 24.992
rfingers 7.12502
rthumb -9.71389 -4.76395
lclavicle 3.33958e-014 -4.29375e-014
lhumerus -5.20724 -38.0453 75.8166
lradius 43.2385
lwrist -6.46062
lhand -27.7982 -11.1879
lfingers 7.12502
lthumb -1.19103 18.7886
rfemur -62.9833 -22.1705 -5.33254
rtibia 132.396
rfoot -20.8691 46.7002
rtoes -24.6756
lfemur -81.7822 21.5853 -23.0428
ltibia 131.654
lfoot -25.9289 -8.26644
ltoes -31.2575
241
root 10.4531 11.1636 0.078336 -368.803 89.4407 -368.28
lowerback 41.5257 -1.34493 7.07151
upperback 21.2866 4.48258 2.02432
thorax 4.12584 4.16093 -2.71791
lowerneck -6.81474 -7.67005 3.98475
upperneck 6.08279 -10.5504 -0.871602
head 2.86336 -5.16991 -1.41816
rclavicle 4.77083e-015 -3.4191e-014
rhumerus 19.37 -9.32807 -71.6435
rradius 21.6459
rwrist 4.95223
rhand -36.2841 24.6794
rfingers 7.12502
rthumb -9.38394 -5.09169
lclavicle 4.77083e-015 -3.4191e-014
lhumerus -5.58017 -38.1831 75.9283
lradius 43.1243
lwrist -6.50545
lhand -27.7198 -11.3026
lfingers 7.12502
lthumb -1.11533 18.6742
rfemur -62.7374 -20.3728 -4.36727
rtibia 131.306
rfoot -20.9004 45.426
rtoes -24.4439
lfemur -81.1143 20.6356 -22.886
ltibia 130.568
lfoot -25.8312 -7.80486
ltoes -31.3267
